<svg xmlns="http://www.w3.org/2000/svg" version="1.0" viewBox="0 0 425 332"><path d="M200.5 49c-26.2 4.3-54 18.2-69.6 34.7-18 19.3-28.6 42.5-31 68.1-4.3 46.1 17 87.4 56.5 110 16.6 9.6 31.8 14 50.2 14.9 21.6 1 39.8-2.8 58.9-12.4 30-15.2 51.6-44.1 59.6-79.8 2-8.8 1.7-32.9-.5-44-5.3-26.7-23.1-54.7-23.1-36.2 0 3 1.6 7.6 5.7 16.2 15.5 33.2 12.3 70.1-9 101.6-8 12-25.1 26.7-39.2 33.9-15.3 7.8-43 12.5-59 10.1-26.2-4-45.5-14.1-63.8-33.5-12-12.7-19.2-25.8-24-43.5-2.2-8.4-2.5-11.7-2.6-26.6-.1-18.8 1.3-26.7 7.6-41 9-20.6 29.4-41.5 50.3-51.6 14.2-6.8 23.8-9.1 41.5-9.6 22.3-.7 31.6 1.3 50.6 10.8 11.5 5.8 14.8 7 18 6.7 7.6-.6 4.6-6.5-6.8-13.2-8.1-4.7-26.4-11.5-36.3-13.5-11.8-2.3-27-3.3-34-2.1"/><path d="M285.2 69.2c-.7.7-1.2 3.1-1.2 5.5V79h-4.4c-6.1 0-7.6 1.8-7.6 8.9 0 3.1.5 6.2 1.2 6.9s3.3 1.2 5.9 1.2h4.8l-.6 3.5c-.4 2.3 0 4.3 1.1 6 1.4 2.1 2.4 2.5 6.7 2.5 7.5 0 8.9-1.1 8.9-7v-5h5c5.9 0 7-1.4 7-8.9 0-5.9-2.2-8.1-8.2-8.1H300v-4.3c0-2.4-.5-4.8-1.2-5.5-1.6-1.6-12-1.6-13.6 0m-66.9.5c-1.4.5-1.7 6.1-.5 8 .4.6 2.3 1.3 4.2 1.6l3.5.4-3.6.1c-2.3.1-3.9.8-4.3 1.8-.3.9-.6 14.9-.6 31.2 0 26.7.2 30.1 1.9 33.8 2.2 4.9 9.2 11.1 14 12.4 2 .5 12.3 1 22.9 1H275v6.5l-15.1-.3c-24.9-.6-35 2.5-40.2 12.1-2.1 4-2.2 5.4-2.5 32.7-.2 15.7 0 30 .3 31.7.5 3 .9 3.3 4.3 3.3 2 0 4.4.5 5.2 1 1.1.7 0 1-3.7 1-2.8 0-5.5.4-5.8 1-.3.5-.3 2.6.1 4.6l.7 3.6 7.8-.4c10-.6 16.2-4 19.7-10.8 2.1-4.2 2.2-5.6 2.2-25.7V199h19.3c21.3 0 26.2-.8 32.4-5.6 6.6-5 7.5-8.9 7.1-30.3-.3-18.6-.3-18.8-3.3-24.6-4.9-9.5-6.4-9.9-33.2-10.3l-22.3-.3v-20.7c0-11.4-.5-22.4-1-24.4-1.3-4.5-8.7-11.3-13.9-12.8-3.7-1-12.6-1.2-14.8-.3m21.6 67c0 .2 8.8.4 19.4.6l19.2.2-20.2.3-20.3.2.2-11.8.1-11.7.7 11c.4 6 .8 11.1.9 11.2m57.9 23.8c.2 10.3 0 17-.7 18.2-.8 1.3-1-3-1.1-15.9 0-9.7-.3-18.5-.6-19.5-.6-1.5-.5-1.6.7-.5 1.1 1 1.5 5.3 1.7 17.7m-46.3 29.2c-7.1.3-11.2.8-11.7 1.6-.5.7-.8 9.4-.7 19.5s-.2 18.6-.5 18.9c-.3.4-.6-8.7-.6-20V189l12.3.2 12.2.2zM188.3 72.3c-9.7 5-11.8 12.2-11.1 37.9l.5 17.7-22.7.3-22.7.3-4.1 2.9c-2.5 1.7-5 4.7-6.4 7.5-2.2 4.3-2.3 5.8-2.3 25.2v20.5l2.8 4.3c1.5 2.3 4.9 5.5 7.4 7.2l4.7 2.9h43.5l-.6 16.7c-.6 19.1.4 26.7 4.3 32.6 3.7 5.6 10.8 8.7 20.2 8.7h7.3l-.3-4.2-.3-4.3-7.5-1-7.5-1 7.8-.3 7.7-.3v-29.7c0-18.4-.4-31.2-1.1-33.7-1.5-5.5-5.2-10.1-10.2-12.7-3.9-2.1-5.8-2.3-25.4-2.6l-21.3-.4V160h18.6c10.9 0 20.4-.5 23.2-1.2 5.8-1.4 13.2-8.6 15-14.5.8-2.8 1.2-13.6 1.2-34.2V80l-5.7-.2-5.8-.1 5.5-.6 5.5-.6.3-4.3.3-4.2h-8.3c-6.6.1-9.2.5-12.5 2.3m-.3 55.2V138l-12.7-.2-12.8-.2 11.5-.5 11.5-.6.2-4.5c.4-7 1.4-15 1.9-15 .2 0 .4 4.7.4 10.5m-57.8 35.7c-.2 13.9-.6 20.8-1.2 19.8-1.3-2.1-1.3-36.6 0-39.1.6-1 1.2-1.9 1.3-1.9s.1 9.6-.1 21.2m56.6 37.5-.2 11.8-.3-11.2-.4-11.2-10.7-.4-10.7-.3 11.3-.2 11.2-.2z"/></svg>